<?xml version="1.0" encoding="UTF-8" standalone="no"?>
<!--==========================================================================

  Licensed Materials - Property of BP3

  Copyright © BP3 Global Inc. 2010. All Rights Reserved.
  This software is subject to copyright protection under
  the laws of the United States and other countries.

============================================================================-->
<svg
   xmlns:dc="http://purl.org/dc/elements/1.1/"
   xmlns:cc="http://creativecommons.org/ns#"
   xmlns:rdf="http://www.w3.org/1999/02/22-rdf-syntax-ns#"
   xmlns:svg="http://www.w3.org/2000/svg"
   xmlns="http://www.w3.org/2000/svg"
   version="1.1"
   width="235.36"
   height="120.62"
   id="svg3227">
  <defs
     id="defs3229" />
  <metadata
     id="metadata3232">
    <rdf:RDF>
      <cc:Work
         rdf:about="">
        <dc:format>image/svg+xml</dc:format>
        <dc:type
           rdf:resource="http://purl.org/dc/dcmitype/StillImage" />
        <dc:title></dc:title>
      </cc:Work>
    </rdf:RDF>
  </metadata>
  <g
     transform="translate(0,-931.7422)"
     id="layer1">
    <g
       transform="matrix(1.0351598,0,0,-1.0045844,198.18591,1003.097)"
       id="g3024">
      <path
         d="m 0,0 c 0,-12.309 -7.313,-21.408 -27.74,-21.408 -18.732,0 -24.62,10.704 -24.62,18.732 0,2.944 0.18,3.746 0.356,5.174 l 16.593,0 c -0.18,-3.033 0.266,-5.441 1.695,-7.137 1.338,-1.694 3.567,-2.675 6.69,-2.675 4.905,0 9.366,2.586 9.366,7.849 0,4.727 -4.461,5.531 -8.297,5.531 l -3.478,0 2.32,11.328 3.745,0 c 4.816,0 10.168,0.624 10.168,5.53 0,3.479 -2.854,5.531 -7.402,5.531 -4.996,0 -8.653,-2.855 -9.368,-7.85 l -16.322,0 c 2.23,14.808 12.756,21.498 27.115,21.498 10.528,0 22.48,-3.479 22.48,-16.236 0,-7.224 -5.354,-12.576 -12.043,-13.646 l 0,-0.179 C -3.3,11.418 0,5.619 0,0 m -23.607,69.813 c -32.331,0 -58.539,-26.21 -58.539,-58.542 0,-32.33 26.208,-58.54 58.539,-58.54 32.331,0 58.541,26.21 58.541,58.54 0,32.332 -26.21,58.542 -58.541,58.542 m -82.354,-56.077 7.582,0 c 5.084,0 10.436,0.358 10.436,6.78 0,5.797 -4.46,6.154 -9.278,6.154 l -8.74,0 0,-12.934 z m -19.625,29.258 32.826,0 c 17.306,0 23.371,-12.666 23.371,-21.765 0,-15.431 -10.347,-22.657 -24.976,-22.657 l -11.596,0 0,-19.265 -19.625,0 0,63.687 z m -44.326,-48.523 11.508,0 c 4.102,0 7.67,1.158 7.67,6.064 0,3.746 -2.23,5.798 -6.868,5.798 l -12.31,0 0,-11.862 z m 0,23.725 10.349,0 c 4.101,0 6.689,1.159 6.689,5.263 0,3.211 -2.676,4.371 -6.689,4.371 l -10.349,0 0,-9.634 z m -19.623,24.798 34.877,0 c 16.769,0 20.337,-9.455 20.337,-15.967 0,-6.422 -3.121,-9.901 -7.85,-12.488 5.71,-1.961 11.062,-6.511 11.062,-15.877 0,-12.756 -11.062,-19.355 -22.301,-19.355 l -36.125,0 0,63.687 z"
         id="path3026"
         style="fill:white;fill-opacity:1;fill-rule:nonzero;stroke:none" />
    </g>
  </g>
</svg>
